<svg xmlns="http://www.w3.org/2000/svg" width="177" height="36" viewBox="0 0 177 36" fill="none"><path d="M37.8517 8.51705V25.5478H46.4209V28H35.2108V8.51705H37.8517ZM49.2898 11.6968C48.3736 11.6968 47.6191 10.9423 47.6191 10.0261C47.6191 9.08295 48.3736 8.35537 49.2898 8.35537C50.206 8.35537 50.9605 9.08295 50.9605 10.0261C50.9605 10.9423 50.206 11.6968 49.2898 11.6968ZM48.0502 28V14.8227H50.5833V28H48.0502ZM55.7428 28H53.4523V8.16674H55.9854V17.0863C56.8477 15.3617 58.6262 14.4455 60.782 14.4455C64.5546 14.4455 66.8182 17.4097 66.8182 21.4787C66.8182 25.4669 64.4468 28.3234 60.6203 28.3234C58.5454 28.3234 56.7938 27.4072 55.9315 25.6017L55.7428 28ZM56.0123 21.3709C56.0123 24.1196 57.5753 26.0328 60.1622 26.0328C62.7492 26.0328 64.2852 24.0926 64.2852 21.3709C64.2852 18.6762 62.7492 16.736 60.1622 16.736C57.5753 16.736 56.0123 18.6762 56.0123 21.3709ZM74.4877 28.3234C70.6073 28.3234 67.9395 25.5208 67.9395 21.4248C67.9395 17.3019 70.5534 14.4455 74.3799 14.4455C78.1256 14.4455 80.5778 17.0324 80.5778 20.9398V21.8829L70.3917 21.9099C70.5803 24.6855 72.0355 26.2215 74.5416 26.2215C76.5087 26.2215 77.8022 25.4131 78.2334 23.904H80.6047C79.958 26.7335 77.7483 28.3234 74.4877 28.3234ZM74.3799 16.5743C72.1702 16.5743 70.769 17.8947 70.4456 20.2122H78.0447C78.0447 18.0295 76.6165 16.5743 74.3799 16.5743ZM90.1439 14.7149V17.0324H89.0121C86.6138 17.0324 85.1317 18.4876 85.1317 21.0206V28H82.5986V14.8497H84.97L85.1317 16.8438C85.6706 15.4695 86.9911 14.5533 88.7965 14.5533C89.2546 14.5533 89.6319 14.6072 90.1439 14.7149ZM95.0384 28.3234C92.2089 28.3234 90.5382 26.7335 90.5382 24.3352C90.5382 21.9099 92.3437 20.4008 95.4426 20.1583L99.5925 19.8349V19.4577C99.5925 17.248 98.2721 16.4665 96.4936 16.4665C94.3647 16.4665 93.1521 17.4097 93.1521 18.9996H90.9424C90.9424 16.2509 93.206 14.4455 96.6014 14.4455C99.862 14.4455 102.072 16.1701 102.072 19.7272V28H99.9159L99.6464 25.8712C98.9727 27.3802 97.1673 28.3234 95.0384 28.3234ZM95.766 26.3562C98.1643 26.3562 99.6195 24.7933 99.6195 22.3141V21.6135L96.2511 21.8829C94.0144 22.0985 93.0982 22.9608 93.0982 24.2543C93.0982 25.6556 94.1222 26.3562 95.766 26.3562ZM108.279 28H105.746V16.9516H103.159V14.8227H105.746V10.6998H108.279V14.8227H110.866V16.9516H108.279V28ZM111.337 21.3979C111.337 17.3288 114.248 14.4724 118.209 14.4724C122.143 14.4724 125.054 17.3288 125.054 21.3979C125.054 25.4669 122.143 28.3234 118.209 28.3234C114.248 28.3234 111.337 25.4669 111.337 21.3979ZM113.897 21.3979C113.897 24.1465 115.649 26.0598 118.209 26.0598C120.742 26.0598 122.521 24.1465 122.521 21.3979C122.521 18.6493 120.742 16.736 118.209 16.736C115.649 16.736 113.897 18.6493 113.897 21.3979ZM134.594 14.7149V17.0324H133.463C131.064 17.0324 129.582 18.4876 129.582 21.0206V28H127.049V14.8497H129.421L129.582 16.8438C130.121 15.4695 131.442 14.5533 133.247 14.5533C133.705 14.5533 134.082 14.6072 134.594 14.7149ZM135.084 24.1735H137.509C137.509 25.5208 138.533 26.3293 140.204 26.3293C141.982 26.3293 143.006 25.6017 143.006 24.3891C143.006 23.4998 142.575 22.9608 141.201 22.6105L138.883 22.0716C136.539 21.5057 135.434 20.3469 135.434 18.4067C135.434 15.9815 137.482 14.4455 140.393 14.4455C143.276 14.4455 145.162 16.0623 145.216 18.5684H142.791C142.737 17.248 141.848 16.4126 140.312 16.4126C138.722 16.4126 137.833 17.1133 137.833 18.3259C137.833 19.2152 138.479 19.808 139.773 20.1314L142.09 20.6973C144.327 21.2362 145.432 22.2602 145.432 24.2274C145.432 26.7335 143.276 28.3234 140.15 28.3234C137.051 28.3234 135.084 26.6796 135.084 24.1735ZM155.232 28H152.483L159.597 8.51705H162.535L169.676 28H166.9L165.149 23.1495H156.957L155.232 28ZM160.729 12.7208L157.765 20.8589H164.367L161.376 12.7208C161.241 12.3436 161.106 11.8855 161.053 11.5891C160.999 11.8585 160.864 12.3166 160.729 12.7208ZM174.098 8.51705V28H171.457V8.51705H174.098Z" fill="white"></path><path d="M13.4736 5C20.9149 5 26.9472 11.0323 26.9473 18.4736C26.9473 25.9149 20.9149 31.9473 13.4736 31.9473C6.03235 31.9472 0 25.9149 0 18.4736C2.78318e-05 11.0324 6.03236 5.00003 13.4736 5ZM13.4736 9.21094C8.3581 9.21119 4.21119 13.3581 4.21094 18.4736C4.21116 23.4294 8.10299 27.4773 12.9971 27.7256L13.4736 27.7373C18.4292 27.737 22.4771 23.845 22.7256 18.9512L22.7373 18.4736C22.7371 13.3581 18.5892 9.2112 13.4736 9.21094ZM13.4736 12.5791C16.7288 12.5794 19.3689 15.2184 19.3691 18.4736C19.3689 21.7288 16.7288 24.3689 13.4736 24.3691C10.2184 24.3689 7.57933 21.7289 7.5791 18.4736C7.57935 15.2184 10.2184 12.5794 13.4736 12.5791Z" fill="white"></path></svg>